<svg width="138" height="41" viewBox="0 0 138 41" fill="none" xmlns="http://www.w3.org/2000/svg">
<path d="M137.085 36.159C137.085 36.6751 136.984 37.1861 136.787 37.6628C136.589 38.1396 136.3 38.5727 135.936 38.9374C135.572 39.3021 135.14 39.5913 134.664 39.7884C134.188 39.9855 133.678 40.0866 133.164 40.0861H4.83653C3.79645 40.0872 2.79853 39.6741 2.06222 38.9377C1.32591 38.2013 0.911511 37.2019 0.910156 36.1593V4.84401C0.911511 3.80091 1.32575 2.80098 2.06191 2.06379C2.79807 1.32659 3.79598 0.91238 4.83653 0.912109H133.163C133.678 0.912076 134.188 1.01376 134.664 1.21135C135.14 1.40895 135.572 1.69858 135.936 2.06371C136.3 2.42884 136.589 2.8623 136.786 3.33935C136.983 3.81641 137.084 4.32769 137.084 4.84401L137.085 36.159Z" fill="white"/>
<path d="M133.164 41H4.83667C3.55536 40.9997 2.32649 40.4899 1.41972 39.5824C0.512959 38.6749 0.00236963 37.4439 0 36.1594L0 4.84569C0.00182732 3.56061 0.512079 2.32872 1.41881 1.4203C2.32555 0.511869 3.55472 0.00108418 4.83667 0L133.163 0C134.445 0.00162515 135.674 0.512584 136.58 1.42089C137.487 2.3292 137.997 3.56077 138 4.84569V36.1594C138.002 38.8296 135.828 41 133.164 41Z" fill="#A6A6A6"/>
<path d="M137.085 36.159C137.085 36.6751 136.984 37.1861 136.787 37.6628C136.589 38.1396 136.3 38.5727 135.936 38.9374C135.572 39.3021 135.14 39.5913 134.664 39.7884C134.188 39.9855 133.678 40.0866 133.164 40.0861H4.83653C3.79645 40.0872 2.79853 39.6741 2.06222 38.9377C1.32591 38.2013 0.911511 37.2019 0.910156 36.1593V4.84401C0.911511 3.80091 1.32575 2.80098 2.06191 2.06379C2.79807 1.32659 3.79598 0.91238 4.83653 0.912109H133.163C133.678 0.912076 134.188 1.01376 134.664 1.21135C135.14 1.40895 135.572 1.69858 135.936 2.06371C136.3 2.42884 136.589 2.8623 136.786 3.33935C136.983 3.81641 137.084 4.32769 137.084 4.84401L137.085 36.159Z" fill="black"/>
<path d="M30.8169 20.285C30.7873 16.9804 33.5161 15.3727 33.6408 15.2979C32.0954 13.0393 29.7001 12.7308 28.8583 12.7062C26.8466 12.4937 24.8951 13.9128 23.8701 13.9128C22.8249 13.9128 21.2468 12.7264 19.5461 12.7615C17.3572 12.7953 15.3095 14.0658 14.1865 16.0382C11.8689 20.0605 13.5975 25.9712 15.8178 29.2222C16.9287 30.8156 18.2264 32.5924 19.9253 32.5299C21.5875 32.4623 22.2082 31.4688 24.2138 31.4688C26.201 31.4688 26.7842 32.5297 28.5166 32.49C30.3004 32.4623 31.4233 30.8904 32.4954 29.2838C33.7788 27.4598 34.2945 25.6617 34.315 25.5691C34.2741 25.5548 30.8517 24.2446 30.8169 20.285ZM27.544 10.5673C28.4379 9.44667 29.0495 7.92198 28.8798 6.375C27.5859 6.4324 25.968 7.27187 25.0362 8.36811C24.2118 9.33392 23.4755 10.917 23.6657 12.4056C25.119 12.5142 26.6112 11.6707 27.544 10.5673Z" fill="white"/>
<path d="M133.162 0H64.4258L91.3484 41H133.162C134.443 40.9989 135.672 40.4884 136.579 39.5805C137.485 38.6726 137.996 37.4413 137.998 36.1566V4.84548C137.996 3.56051 137.486 2.32884 136.579 1.42052C135.672 0.512197 134.443 0.00135534 133.162 0Z" fill="url(#paint0_linear_23394_37796)"/>
<path d="M54.8854 32.3004H52.5626L51.2902 28.2927H46.8678L45.6557 32.3004H43.3945L47.7771 18.6562H50.4834L54.8854 32.3004ZM50.9069 26.6114L49.7561 23.0485C49.6345 22.6847 49.4052 21.8272 49.0699 20.4781H49.029C48.8939 21.0585 48.6782 21.9157 48.3825 23.0483L47.2514 26.6114H50.9069ZM66.134 27.2603C66.134 28.9336 65.6809 30.2561 64.7736 31.227C63.9615 32.0913 62.952 32.5231 61.7481 32.5231C60.4483 32.5231 59.5135 32.0585 58.9457 31.1276V36.29H56.7653V25.6959C56.7653 24.6447 56.7377 23.5672 56.6845 22.462H58.6022L58.7238 24.0215H58.7647C59.492 22.8466 60.5955 22.259 62.0767 22.259C63.2344 22.259 64.2009 22.7172 64.974 23.6351C65.7463 24.5545 66.134 25.7625 66.134 27.2603ZM63.9124 27.3402C63.9124 26.3826 63.6977 25.5931 63.2658 24.9709C62.7946 24.3239 62.1613 23.9997 61.3678 23.9997C60.8296 23.9997 60.3407 24.1804 59.9043 24.5361C59.4665 24.8948 59.18 25.3638 59.0461 25.9439C58.9862 26.1609 58.9522 26.3843 58.9446 26.6094V28.2507C58.9446 28.9656 59.1637 29.5693 59.6014 30.0634C60.0392 30.5554 60.6078 30.8027 61.3073 30.8027C62.1286 30.8027 62.768 30.4839 63.2252 29.8512C63.6832 29.2165 63.9124 28.3798 63.9124 27.3402ZM77.4224 27.2603C77.4224 28.9336 76.9693 30.2561 76.0621 31.227C75.2489 32.0913 74.2405 32.5231 73.0355 32.5231C71.7358 32.5231 70.8009 32.0585 70.2331 31.1276V36.29H68.0527V25.6959C68.0527 24.6447 68.0251 23.5672 67.9719 22.462H69.8896L70.0113 24.0215H70.0522C70.7782 22.8466 71.8819 22.259 73.3639 22.259C74.5206 22.259 75.4871 22.7172 76.2624 23.6351C77.0337 24.5545 77.4224 25.7625 77.4224 27.2603ZM75.1998 27.3402C75.1998 26.3826 74.9839 25.5931 74.5522 24.9709C74.0807 24.3239 73.4498 23.9997 72.656 23.9997C72.1181 23.9997 71.6292 24.1804 71.1904 24.5361C70.7526 24.8948 70.4672 25.3638 70.3335 25.9439C70.2671 26.2145 70.2313 26.4349 70.2313 26.6094V28.2507C70.2313 28.9656 70.4511 29.5693 70.8868 30.0634C71.3246 30.5546 71.8932 30.8027 72.5947 30.8027C73.4171 30.8027 74.0565 30.4839 74.5124 29.8512C74.9706 29.2165 75.1998 28.3798 75.1998 27.3402ZM90.0433 28.4733C90.0433 29.6349 89.6383 30.5792 88.8335 31.3082C87.9478 32.1036 86.7111 32.5024 85.1259 32.5024C83.6613 32.5024 82.487 32.2197 81.6013 31.6526L82.1055 29.8307C83.0618 30.3988 84.1124 30.6815 85.2557 30.6815C86.0781 30.6815 86.7175 30.4952 87.1734 30.1249C87.6309 29.7538 87.8619 29.2575 87.8619 28.6384C87.8619 28.0836 87.6705 27.6193 87.2951 27.2408C86.9179 26.8636 86.2938 26.5118 85.4172 26.1889C83.0342 25.2979 81.8417 23.9949 81.8417 22.2806C81.8417 21.1607 82.2632 20.2444 83.1039 19.5277C83.9447 18.812 85.0595 18.454 86.4464 18.454C87.6848 18.454 88.7167 18.6705 89.536 19.1023L88.9889 20.884C88.2176 20.4658 87.3472 20.2567 86.3735 20.2567C85.6043 20.2567 85.0012 20.4463 84.5693 20.8235C84.2064 21.161 84.0224 21.572 84.0224 22.0602C84.0224 22.5983 84.232 23.0455 84.6493 23.396C85.0114 23.7189 85.672 24.0707 86.6273 24.4479C87.7993 24.9217 88.6605 25.4732 89.2117 26.1069C89.7673 26.7406 90.0433 27.5311 90.0433 28.4733ZM97.2712 24.1025H94.8677V28.8792C94.8677 30.0941 95.2912 30.7002 96.1401 30.7002C96.5299 30.7002 96.8531 30.6674 97.1087 30.5987L97.169 32.2587C96.7397 32.4196 96.1739 32.5006 95.4734 32.5006C94.6122 32.5006 93.939 32.2372 93.4532 31.71C92.9694 31.1829 92.7262 30.3004 92.7262 29.0579V24.0981H91.2943V22.4579H92.7262V20.6564L94.8677 20.0084V22.4581H97.2712V24.1025ZM108.094 27.3005C108.094 28.8124 107.663 30.0542 106.802 31.0251C105.901 32.0247 104.702 32.5231 103.208 32.5231C101.765 32.5231 100.619 32.0442 99.7639 31.0876C98.9088 30.1292 98.4813 28.9213 98.4813 27.4642C98.4813 25.9396 98.9231 24.6908 99.8038 23.7199C100.686 22.748 101.875 22.2618 103.369 22.2618C104.809 22.2618 105.966 22.7418 106.842 23.6994C107.678 24.6283 108.094 25.8283 108.094 27.3005ZM105.834 27.3505C105.834 26.4492 105.64 25.6764 105.25 25.0294C104.793 24.248 104.138 23.8575 103.29 23.8575C102.417 23.8575 101.747 24.248 101.291 25.0294C100.9 25.6764 100.706 26.4626 100.706 27.3915C100.706 28.2937 100.9 29.0689 101.291 29.7139C101.762 30.4952 102.42 30.8857 103.272 30.8857C104.106 30.8857 104.759 30.487 105.232 29.6941C105.633 29.032 105.834 28.254 105.834 27.3505ZM115.185 24.3844C114.958 24.3433 114.728 24.3231 114.498 24.3239C113.731 24.3239 113.138 24.6129 112.72 25.1954C112.358 25.7079 112.176 26.3562 112.176 27.1383V32.3007H109.996V25.5603C109.998 24.5275 109.976 23.4948 109.932 22.463H111.832L111.911 24.3454H111.972C112.203 23.6984 112.565 23.1767 113.062 22.7859C113.517 22.4446 114.07 22.2598 114.638 22.259C114.84 22.259 115.021 22.2734 115.183 22.299L115.185 24.3844ZM124.937 26.9159C124.943 27.2481 124.916 27.5802 124.858 27.9073H118.316C118.341 28.8792 118.658 29.6237 119.265 30.1362C119.816 30.5936 120.529 30.8232 121.405 30.8232C122.373 30.8232 123.257 30.6694 124.052 30.3588L124.393 31.8751C123.465 32.2812 122.368 32.4831 121.103 32.4831C119.581 32.4831 118.387 32.0339 117.517 31.1378C116.65 30.241 116.215 29.035 116.215 27.5247C116.215 26.0423 116.619 24.8069 117.428 23.8216C118.275 22.7695 119.42 22.2437 120.86 22.2437C122.274 22.2437 123.345 22.7695 124.072 23.8216C124.648 24.655 124.938 25.6887 124.938 26.9159H124.937ZM122.858 26.3488C122.873 25.7 122.73 25.1411 122.435 24.6683C122.057 24.0594 121.477 23.756 120.698 23.756C119.985 23.756 119.404 24.0523 118.962 24.6468C118.599 25.1195 118.384 25.6877 118.317 26.3467L122.858 26.3488ZM46.2389 13.8323C45.6322 13.8323 45.1075 13.8025 44.6708 13.7523V7.15566C45.2816 7.06108 45.8989 7.01447 46.5169 7.01626C49.0178 7.01626 50.1693 8.24959 50.1693 10.2601C50.1693 12.5792 48.809 13.8323 46.2389 13.8323ZM46.6048 7.86188C46.2675 7.86188 45.98 7.88238 45.7418 7.93184V12.9464C45.8706 12.9669 46.118 12.9761 46.4658 12.9761C48.1044 12.9761 49.0372 12.0408 49.0372 10.2898C49.0372 8.72826 48.1934 7.86188 46.6048 7.86188ZM53.7584 13.8825C52.349 13.8825 51.4354 12.8275 51.4354 11.3951C51.4354 9.9024 52.3681 8.83794 53.8381 8.83794C55.2271 8.83794 56.1609 9.84295 56.1609 11.3161C56.1609 12.8275 55.1984 13.8825 53.7584 13.8825ZM53.7993 9.6236C53.0249 9.6236 52.5289 10.3493 52.5289 11.3643C52.5289 12.3598 53.0351 13.0858 53.7888 13.0858C54.5424 13.0858 55.0489 12.3096 55.0489 11.3438C55.0489 10.3598 54.5532 9.6236 53.7993 9.6236ZM64.1979 8.93762L62.6891 13.7728H61.7062L61.0813 11.6731C60.9259 11.1594 60.7966 10.6382 60.6937 10.1115H60.6732C60.5945 10.6383 60.4453 11.1665 60.2866 11.6731L59.6219 13.7728H58.6288L57.2092 8.93736H58.3106L58.8567 11.2362C58.9858 11.7838 59.0941 12.3004 59.1841 12.7885H59.2045C59.2833 12.3814 59.4121 11.873 59.6014 11.2464L60.2866 8.93864H61.1601L61.8158 11.1972C61.9678 11.7222 62.0971 12.2534 62.2032 12.7896H62.2319C62.3016 12.2924 62.4108 11.7643 62.5592 11.1972L63.1452 8.93864L64.1979 8.93762ZM69.7514 13.7728H68.6796V10.9963C68.6796 10.1412 68.3524 9.71252 67.7069 9.71252C67.0718 9.71252 66.6351 10.2601 66.6351 10.8969V13.7728H65.563V10.3193C65.563 9.89189 65.5528 9.43346 65.5232 8.93634H66.4662L66.5163 9.68254H66.5462C66.8344 9.16594 67.4194 8.83768 68.0752 8.83768C69.0877 8.83768 69.7524 9.61412 69.7524 10.8772L69.7514 13.7728ZM72.7074 13.7728H71.6343V6.71875H72.7074V13.7728ZM76.6154 13.8825C75.207 13.8825 74.2923 12.8275 74.2923 11.3951C74.2923 9.9024 75.2251 8.83794 76.6941 8.83794C78.084 8.83794 79.0168 9.84295 79.0168 11.3161C79.0178 12.8275 78.0544 13.8825 76.6154 13.8825ZM76.6552 9.6236C75.8809 9.6236 75.3851 10.3493 75.3851 11.3643C75.3851 12.3598 75.8921 13.0858 76.644 13.0858C77.3986 13.0858 77.9039 12.3096 77.9039 11.3438C77.9052 10.3598 77.4099 9.6236 76.6552 9.6236ZM83.243 13.7728L83.1653 13.216H83.1367C82.8093 13.6642 82.3316 13.8822 81.726 13.8822C80.8619 13.8822 80.2481 13.2754 80.2481 12.4593C80.2481 11.2659 81.2803 10.6486 83.0669 10.6486V10.5594C83.0669 9.9229 82.7306 9.60387 82.0656 9.60387C81.5903 9.60387 81.1727 9.72379 80.8057 9.96262L80.5877 9.25639C81.0337 8.97759 81.59 8.83794 82.2437 8.83794C83.5036 8.83794 84.14 9.50444 84.14 10.8385V12.6194C84.14 13.1073 84.1614 13.4855 84.2095 13.7738L83.243 13.7728ZM83.0955 11.3643C81.9051 11.3643 81.3079 11.6536 81.3079 12.3393C81.3079 12.8467 81.6156 13.095 82.0431 13.095C82.5882 13.095 83.0955 12.6778 83.0955 12.1108V11.3643ZM89.3449 13.7728L89.2948 12.9964H89.2652C88.9572 13.5832 88.4397 13.8825 87.7165 13.8825C86.5537 13.8825 85.6925 12.8572 85.6925 11.4148C85.6925 9.9024 86.5854 8.83691 87.8044 8.83691C88.4499 8.83691 88.9071 9.05549 89.1647 9.49419H89.1862V6.71901H90.2593V12.4693C90.2593 12.9369 90.2705 13.3746 90.2991 13.7725L89.3449 13.7728ZM89.1864 10.9277C89.1864 10.2509 88.7392 9.67357 88.0571 9.67357C87.2624 9.67357 86.7768 10.3801 86.7768 11.3746C86.7768 12.3496 87.2808 13.0171 88.0357 13.0171C88.7096 13.0171 89.1862 12.4295 89.1862 11.7333L89.1864 10.9277ZM97.0617 13.8822C95.6533 13.8822 94.7399 12.8275 94.7399 11.3951C94.7399 9.9024 95.6727 8.83794 97.1414 8.83794C98.5316 8.83794 99.4644 9.84295 99.4644 11.3161C99.4652 12.8275 98.5028 13.8822 97.0617 13.8822ZM97.1015 9.62334C96.3282 9.62334 95.8322 10.3493 95.8322 11.3643C95.8322 12.3598 96.3384 13.0858 97.0913 13.0858C97.8462 13.0858 98.3512 12.3096 98.3512 11.3438C98.3535 10.3598 97.8575 9.62334 97.1015 9.62334ZM105.228 13.7728H104.156V10.9963C104.156 10.1412 103.829 9.71252 103.183 9.71252C102.548 9.71252 102.112 10.2601 102.112 10.8969V13.7728H101.039V10.3193C101.039 9.89189 101.029 9.43346 100.999 8.93634H101.942L101.992 9.68254H102.022C102.31 9.16594 102.896 8.83691 103.55 8.83691C104.563 8.83691 105.228 9.61284 105.228 10.8762V13.7728ZM112.44 9.74327H111.261V12.0913C111.261 12.6891 111.467 12.9874 111.885 12.9874C112.074 12.9874 112.233 12.9669 112.36 12.9372L112.39 13.7533C112.182 13.8333 111.904 13.8733 111.559 13.8733C110.714 13.8733 110.209 13.4056 110.209 12.1815V9.74327H109.505V8.93762H110.209V8.05151L111.261 7.73247V8.93634H112.44L112.44 9.74327ZM118.114 13.7728H117.044V11.0168C117.044 10.1515 116.717 9.71354 116.071 9.71354C115.516 9.71354 114.998 10.092 114.998 10.858V13.7728H113.927V6.71875H114.998V9.62334H115.02C115.357 9.09649 115.846 8.83691 116.47 8.83691C117.491 8.83691 118.114 9.63257 118.114 10.8969V13.7728ZM123.928 11.6134H120.711C120.732 12.529 121.336 13.0458 122.231 13.0458C122.707 13.0458 123.145 12.9659 123.531 12.8172L123.698 13.5637C123.242 13.7625 122.705 13.862 122.08 13.862C120.571 13.862 119.678 12.9062 119.678 11.425C119.678 9.94237 120.593 8.82769 121.959 8.82769C123.192 8.82769 123.965 9.74327 123.965 11.1262C123.972 11.2895 123.959 11.453 123.928 11.6134ZM122.945 10.8477C122.945 10.1013 122.57 9.57414 121.885 9.57414C121.269 9.57414 120.782 10.1115 120.712 10.8477H122.945Z" fill="white"/>
<defs>
<linearGradient id="paint0_linear_23394_37796" x1="101.211" y1="41.1089" x2="101.211" y2="-106.757" gradientUnits="userSpaceOnUse">
<stop stop-color="#1A1A1A" stop-opacity="0.1"/>
<stop offset="0.123" stop-color="#212121" stop-opacity="0.151"/>
<stop offset="0.308" stop-color="#353535" stop-opacity="0.227"/>
<stop offset="0.532" stop-color="#575757" stop-opacity="0.318"/>
<stop offset="0.783" stop-color="#858585" stop-opacity="0.421"/>
<stop offset="1" stop-color="#B3B3B3" stop-opacity="0.51"/>
</linearGradient>
</defs>
</svg>
